<svg xmlns="http://www.w3.org/2000/svg" version="1.1" xmlns:xlink="http://www.w3.org/1999/xlink" xmlns:svgjs="http://svgjs.dev/svgjs" width="1500" height="1500" viewBox="0 0 1500 1500"><rect width="1500" height="1500" fill="#000000"></rect><g transform="matrix(0.6666666666666666,0,0,0.6666666666666666,249.39393939393932,603.1053722214243)"><svg viewBox="0 0 396 116" data-background-color="#ffffff" preserveAspectRatio="xMidYMid meet" height="439" width="1500" xmlns="http://www.w3.org/2000/svg" xmlns:xlink="http://www.w3.org/1999/xlink"><g id="tight-bounds" transform="matrix(1,0,0,1,0.24000000000003752,0.22247205802318604)"><svg viewBox="0 0 395.5199999999999 115.55505588395363" height="115.55505588395363" width="395.5199999999999"><g><svg viewBox="0 0 608.0148070419747 177.63750254350393" height="115.55505588395363" width="395.5199999999999"><g transform="matrix(1,0,0,1,0,51.90552788344612)"><svg viewBox="0 0 395.52 73.82644677661169" height="73.82644677661169" width="395.52"><g id="textblocktransform"><svg viewBox="0 0 395.52 73.82644677661169" height="73.82644677661169" width="395.52" id="textblock"><g><svg viewBox="0 0 395.52 73.82644677661169" height="73.82644677661169" width="395.52"><g transform="matrix(1,0,0,1,0,0)"><svg width="395.52" viewBox="5.7 -37.1 201.49 37.35" height="73.82644677661169" data-palette-color="#77d4fc"><g class="wordmark-text-0" data-fill-palette-color="primary" id="text-0"><path d="M31.3-35L34.95-35 34.95 0 31.3 0 31.3-16.15 9.4-16.15 9.4 0 5.7 0 5.7-35 9.4-35 9.4-19.4 31.3-19.4 31.3-35ZM80.95-26.3L84.2-26.3 74.25 0 70.9 0 62.6-21.55 54.3 0 50.95 0 41.05-26.3 44.45-26.3 52.7-3.95 61.15-26.3 64.2-26.3 72.6-3.95 80.95-26.3ZM112.5-13.15L112.45-12.05 90.45-12.05Q90.75-7.95 93.6-5.43 96.45-2.9 100.8-2.9L100.8-2.9Q103.25-2.9 105.3-3.78 107.35-4.65 108.85-6.35L108.85-6.35 110.85-4.05Q109.1-1.95 106.47-0.85 103.85 0.25 100.7 0.25L100.7 0.25Q96.65 0.25 93.52-1.48 90.4-3.2 88.65-6.25 86.9-9.3 86.9-13.15L86.9-13.15Q86.9-17 88.57-20.05 90.25-23.1 93.17-24.8 96.1-26.5 99.75-26.5L99.75-26.5Q103.4-26.5 106.3-24.8 109.2-23.1 110.85-20.08 112.5-17.05 112.5-13.15L112.5-13.15ZM99.75-23.45Q95.95-23.45 93.37-21.03 90.8-18.6 90.45-14.7L90.45-14.7 109.1-14.7Q108.75-18.6 106.17-21.03 103.6-23.45 99.75-23.45L99.75-23.45ZM128.94-26.5Q134.09-26.5 136.84-23.93 139.59-21.35 139.59-16.3L139.59-16.3 139.59 0 136.19 0 136.19-4.1Q134.99-2.05 132.67-0.9 130.34 0.25 127.14 0.25L127.14 0.25Q122.74 0.25 120.14-1.85 117.54-3.95 117.54-7.4L117.54-7.4Q117.54-10.75 119.97-12.8 122.39-14.85 127.69-14.85L127.69-14.85 136.04-14.85 136.04-16.45Q136.04-19.85 134.14-21.63 132.24-23.4 128.59-23.4L128.59-23.4Q126.09-23.4 123.79-22.58 121.49-21.75 119.84-20.3L119.84-20.3 118.24-22.95Q120.24-24.65 123.04-25.58 125.84-26.5 128.94-26.5L128.94-26.5ZM127.69-2.55Q130.69-2.55 132.84-3.93 134.99-5.3 136.04-7.9L136.04-7.9 136.04-12.2 127.79-12.2Q121.04-12.2 121.04-7.5L121.04-7.5Q121.04-5.2 122.79-3.88 124.54-2.55 127.69-2.55L127.69-2.55ZM149.24 0L149.24-37.1 152.79-37.1 152.79 0 149.24 0ZM175.29-4.15L176.54-1.6Q175.54-0.7 174.06-0.23 172.59 0.25 170.99 0.25L170.99 0.25Q167.29 0.25 165.29-1.75 163.29-3.75 163.29-7.4L163.29-7.4 163.29-23.3 158.59-23.3 158.59-26.3 163.29-26.3 163.29-32.05 166.84-32.05 166.84-26.3 174.84-26.3 174.84-23.3 166.84-23.3 166.84-7.6Q166.84-5.25 168.01-4.03 169.19-2.8 171.39-2.8L171.39-2.8Q172.49-2.8 173.51-3.15 174.54-3.5 175.29-4.15L175.29-4.15ZM196.39-26.5Q201.34-26.5 204.26-23.63 207.19-20.75 207.19-15.25L207.19-15.25 207.19 0 203.64 0 203.64-14.9Q203.64-19 201.59-21.15 199.54-23.3 195.74-23.3L195.74-23.3Q191.49-23.3 189.01-20.78 186.54-18.25 186.54-13.8L186.54-13.8 186.54 0 182.99 0 182.99-37.1 186.54-37.1 186.54-21.7Q187.99-24 190.54-25.25 193.09-26.5 196.39-26.5L196.39-26.5Z" fill="#ffffff" data-fill-palette-color="primary"></path></g></svg></g></svg></g></svg></g></svg></g><g transform="matrix(1,0,0,1,430.3773044984707,0)"><svg viewBox="0 0 177.63750254350393 177.63750254350393" height="177.63750254350393" width="177.63750254350393"><g><svg></svg></g><g id="icon-0"><svg viewBox="0 0 177.63750254350393 177.63750254350393" height="177.63750254350393" width="177.63750254350393"><g><path d="M0 88.819c0-49.053 39.766-88.819 88.819-88.819 49.053 0 88.819 39.766 88.818 88.819 0 49.053-39.766 88.819-88.818 88.818-49.053 0-88.819-39.766-88.819-88.818zM88.819 170.98c45.376 0 82.161-36.785 82.161-82.161 0-45.376-36.785-82.161-82.161-82.161-45.376 0-82.161 36.785-82.161 82.161 0 45.376 36.785 82.161 82.161 82.161z" data-fill-palette-color="accent" fill="#ffffff" stroke="transparent"></path><ellipse rx="87.93056375903444" ry="87.93056375903444" cx="88.81875127175196" cy="88.81875127175196" fill="#ffffff" stroke="transparent" stroke-width="0" fill-opacity="1" data-fill-palette-color="accent"></ellipse></g><g transform="matrix(1,0,0,1,43.168304230130346,39.36410030999521)"><svg viewBox="0 0 91.30089408324324 98.90930192351351" height="98.90930192351351" width="91.30089408324324"><g><svg xmlns:x="http://ns.adobe.com/Extensibility/1.0/" xmlns:i="http://ns.adobe.com/AdobeIllustrator/10.0/" xmlns:graph="http://ns.adobe.com/Graphs/1.0/" xmlns="http://www.w3.org/2000/svg" xmlns:xlink="http://www.w3.org/1999/xlink" version="1.1" x="0" y="0" viewBox="8 6 48 52" enable-background="new 0 0 64 64" xml:space="preserve" height="98.90930192351351" width="91.30089408324324" class="icon-cg-0" data-fill-palette-color="quaternary" id="cg-0"><g fill="#ffffff" data-fill-palette-color="quaternary"><g fill="#ffffff" data-fill-palette-color="quaternary"><path d="M27.978 27.779C27.986 27.853 28 27.924 28 28v10h8V27.761l-4-3.2L27.978 27.779z" fill="#000000" data-fill-palette-color="quaternary"></path><path d="M54 16c-10.468 0-14-2.019-14-8 0-1.104-0.896-2-2-2H26c-1.104 0-2 0.896-2 2 0 5.981-3.533 8-14 8-1.104 0-2 0.896-2 2v16c0 13.293 22.236 23.401 23.183 23.825C31.443 57.941 31.721 58 32 58s0.557-0.059 0.817-0.175C33.764 57.401 56 47.293 56 34V18C56 16.896 55.104 16 54 16zM43.562 31.25C43.167 31.743 42.585 32 41.999 32c-0.438 0-0.88-0.143-1.248-0.438L40 30.961V40c0 1.104-0.896 2-2 2H26c-1.104 0-2-0.896-2-2v-9.039l-0.75 0.601c-0.863 0.691-2.121 0.55-2.811-0.312-0.69-0.863-0.55-2.121 0.312-2.811l10-8c0.73-0.585 1.769-0.585 2.499 0l3.081 2.465C36.688 22.36 37.301 22 38 22c1.104 0 2 0.896 2 2v1.839l3.249 2.599C44.112 29.128 44.252 30.387 43.562 31.25z" fill="#000000" data-fill-palette-color="quaternary"></path></g></g></svg><g></g></g></svg></g></svg></g></svg></g></svg></g><defs></defs></svg><rect width="395.5199999999999" height="115.55505588395363" fill="none" stroke="none" visibility="hidden"></rect></g></svg></g></svg>